<svg width="610" height="610" viewBox="0 0 610 610" fill="none" xmlns="http://www.w3.org/2000/svg">
<g filter="url(#filter0_d_1_3)">
<path fill-rule="evenodd" clip-rule="evenodd" d="M386.839 1.14918C791.398 397.076 541.155 566.119 365.464 601.149L386.839 1.14918Z" fill="#D69393"/>
<path fill-rule="evenodd" clip-rule="evenodd" d="M386.839 1.14918C791.398 397.076 541.155 566.119 365.464 601.149L386.839 1.14918Z" fill="black" fill-opacity="0.2"/>
<path d="M365.464 601.149L223.66 29.8661L4.6972 471.007L365.464 601.149Z" fill="#D69393"/>
<path d="M365.464 601.149L223.66 29.8661L4.6972 471.007L365.464 601.149Z" fill="#D7A2A2"/>
<path d="M365.464 601.149C541.155 566.119 791.398 397.076 386.839 1.14918L365.464 601.149ZM365.464 601.149L223.66 29.8661L4.6972 471.007L365.464 601.149Z" stroke="#D69393"/>
</g>
<defs>
<filter id="filter0_d_1_3" x="-1.19209e-07" y="0" width="609.199" height="609.667" filterUnits="userSpaceOnUse" color-interpolation-filters="sRGB">
<feFlood flood-opacity="0" result="BackgroundImageFix"/>
<feColorMatrix in="SourceAlpha" type="matrix" values="0 0 0 0 0 0 0 0 0 0 0 0 0 0 0 0 0 0 127 0" result="hardAlpha"/>
<feOffset dy="4"/>
<feGaussianBlur stdDeviation="2"/>
<feComposite in2="hardAlpha" operator="out"/>
<feColorMatrix type="matrix" values="0 0 0 0 0 0 0 0 0 0 0 0 0 0 0 0 0 0 0.25 0"/>
<feBlend mode="normal" in2="BackgroundImageFix" result="effect1_dropShadow_1_3"/>
<feBlend mode="normal" in="SourceGraphic" in2="effect1_dropShadow_1_3" result="shape"/>
</filter>
</defs>
</svg>
